<?xml version="1.0" encoding="utf-8"?>
<!-- Generator: Adobe Illustrator 19.0.0, SVG Export Plug-In . SVG Version: 6.00 Build 0)  -->
<svg version="1.1" xmlns="http://www.w3.org/2000/svg" xmlns:xlink="http://www.w3.org/1999/xlink" x="0px" y="0px"
	 viewBox="0 0 475.2 475.2" style="enable-background:new 0 0 475.2 475.2;" xml:space="preserve">
<style type="text/css">
	.st0{enable-background:new    ;}
	.st1{fill-rule:evenodd;clip-rule:evenodd;fill:#E9FA9E;}
	.st2{fill-rule:evenodd;clip-rule:evenodd;fill:#002601;}
	.st3{fill-rule:evenodd;clip-rule:evenodd;fill:#C7CB02;}
	.st4{fill-rule:evenodd;clip-rule:evenodd;fill:#FFFFFF;}
	.st5{fill-rule:evenodd;clip-rule:evenodd;fill:#FCFF1C;}
	.st6{fill-rule:evenodd;clip-rule:evenodd;fill:#5A7516;}
</style>
<g id="Background_xA0_Image_1_">
	
		<image style="overflow:visible;" width="1980" height="1980" id="Background_xA0_Image" xlink:href="1B0F12E5.jpg"  transform="matrix(0.24 0 0 0.24 0 0)">
	</image>
</g>
<g id="bg_1_" class="st0">
	<g id="bg">
		<g>
			<path class="st1" d="M172.3,129c0-6.2-5.1-11.3-11.5-11.3c-6.4,0-11.5,5.1-11.5,11.3c0,6.2,5.1,11.3,11.5,11.3
				C167.1,140.3,172.3,135.3,172.3,129z M315.4,225.3c-4.4,0-7.9,3.5-7.9,7.7c0,4.3,3.5,7.7,7.9,7.7c4.4,0,7.9-3.5,7.9-7.7
				C323.3,228.7,319.8,225.3,315.4,225.3z M309.8,159.3c3-4,4.8-8.9,4.8-14.3c0-13.2-10.9-23.9-24.4-23.9c-4.1,0-8,1-11.4,2.8
				c-12.2-7.5-26.7-11.9-42.2-11.9c-43.9,0-79.5,34.9-79.5,78c0,43.1,35.6,78,79.5,78c43.9,0,79.5-34.9,79.5-78
				C316.2,179.1,313.9,168.7,309.8,159.3z"/>
		</g>
	</g>
</g>
<g id="Shape_1_1_" class="st0">
	<g id="Shape_1">
		<g>
			<path class="st2" d="M96.5,353.6h-1.8c-1.3,0-1.9-0.6-1.9-1.9v-37.3c0-1.3-0.6-1.9-1.9-1.9h-3.7c-1.2,0-1.9,0.6-1.9,1.9v44.8
				c0,1.3,0.6,1.9,1.9,1.9h9.4c1.2,0,1.8-0.6,1.8-1.9v-3.7C98.4,354.3,97.8,353.6,96.5,353.6z M223.9,312.6h-9.4
				c-1.2,0-1.9,0.6-1.9,1.9v44.8c0,1.2,0.6,1.9,1.9,1.9h9.4c1.2,0,1.8-0.6,1.8-1.9v-3.7c0-1.2-0.6-1.9-1.8-1.9H222
				c-1.3,0-1.9-0.6-1.9-1.9v-8.4c0-1.2,0.6-1.9,1.9-1.9s1.9-0.6,1.9-1.9v-3.7c0-1.2-0.6-1.9-1.9-1.9s-1.9-0.6-1.9-1.9v-10.2
				c0-1.3,0.6-1.9,1.9-1.9h1.8c1.2,0,1.9-0.6,1.9-1.9v-3.7C225.7,313.2,225.1,312.6,223.9,312.6z M123,312.6h-3.7
				c-5,0-7.5,2.5-7.5,7.5v33.6c0,5,2.5,7.5,7.5,7.5h3.7c5,0,7.5-2.5,7.5-7.5V320C130.5,315,128,312.6,123,312.6z M123,351.8
				c0,1.2-0.7,1.9-1.9,1.9c-1.2,0-1.9-0.6-1.9-1.9l0-29.9c0-1.2,0.6-1.9,1.8-1.9c1.2,0,1.9,0.6,1.9,1.9V351.8z M156.6,312.6h-3.7
				c-5,0-7.5,2.5-7.5,7.5v33.6c0,5,2.5,7.5,7.5,7.5h9.3c1.2,0,1.9-0.6,1.9-1.9v-22.4c0-1.3-0.6-1.9-1.8-1.9h-5.6
				c-1.2-0.1-1.9,0.5-1.9,1.8v3.7c0,1.2,0.3,1.9,0.9,1.9c0.6,0,0.9,0.7,0.9,2v7.4c0,1.3-0.6,1.9-1.9,1.9s-1.9-0.6-1.9-1.9v-29.8
				c0-1.3,0.6-1.9,1.9-1.9s1.9,0.6,1.9,1.8v5.6c0,1.2,0.6,1.9,1.9,1.9h3.7c1.2,0,1.9-0.6,1.9-1.9V320
				C164.1,315,161.6,312.6,156.6,312.6z M190.2,312.6h-3.7c-5,0-7.5,2.5-7.5,7.5v33.6c0,5,2.5,7.5,7.5,7.5h9.3
				c1.2,0,1.9-0.6,1.9-1.9v-22.4c0-1.3-0.6-1.9-1.8-1.9h-5.6c-1.2-0.1-1.9,0.5-1.9,1.8v3.7c0,1.2,0.3,1.9,0.9,1.9
				c0.6,0,0.9,0.7,0.9,2v7.4c0,1.3-0.6,1.9-1.9,1.9s-1.9-0.6-1.9-1.9v-29.8c0-1.3,0.6-1.9,1.9-1.9s1.9,0.6,1.9,1.8v5.6
				c0,1.2,0.6,1.9,1.9,1.9h3.7c1.2,0,1.9-0.6,1.9-1.9V320C197.7,315,195.2,312.6,190.2,312.6z M380.7,312.6h-9.3
				c-1.2,0-1.9,0.6-1.9,1.9v44.8c0,1.2,0.6,1.9,1.9,1.9h9.3c5,0,7.5-2.5,7.5-7.5V320C388.2,315,385.7,312.6,380.7,312.6z
				 M380.7,351.8c0,1.2-0.6,1.9-1.9,1.9c-1.2,0-1.9-0.6-1.9-1.9l0-29.9c0-1.2,0.6-1.9,1.8-1.9c1.2,0,1.9,0.6,1.9,1.9L380.7,351.8z
				 M347.1,312.6h-3.7c-5,0-7.5,2.5-7.5,7.5v39.2c0,1.2,0.6,1.9,1.9,1.9h3.7c1.2,0,1.9-0.6,1.9-1.9v-14.9c0-1.2,0.6-1.9,1.9-1.9
				s1.9,0.6,1.9,1.9v14.9c0,1.2,0.6,1.9,1.9,1.9h3.7c1.2,0,1.9-0.6,1.9-1.9V320C354.6,315,352.1,312.6,347.1,312.6z M347.2,333.1
				c0,1.2-0.6,1.9-1.9,1.9s-1.9-0.6-1.9-1.9v-11.2c0-1.2,0.6-1.9,1.9-1.9s1.9,0.6,1.9,1.9V333.1z M291.1,312.6h-3.7
				c-1.2,0-1.9,0.6-1.9,1.9v18.7c0,1.2-0.6,1.9-1.9,1.9s-1.9-0.6-1.9-1.9v-18.7c0-1.2-0.6-1.9-1.9-1.9h-3.7c-1.2,0-1.9,0.6-1.9,1.8
				v44.9c0,1.2,0.6,1.8,1.9,1.8h3.7c1.2,0,1.9-0.6,1.9-1.9v-14.9c0-1.3,0.6-1.9,1.9-1.9s1.9,0.6,1.9,1.9v14.9c0,1.2,0.6,1.9,1.9,1.9
				h3.7c1.2,0,1.9-0.6,1.9-1.8v-44.9C293,313.2,292.3,312.6,291.1,312.6z M257.1,347.1c-0.3-1.4-0.1-2.4,0.6-3
				c1.1-1.4,1.6-3.3,1.6-5.7V320c0-5-2.5-7.5-7.5-7.5h-9.3c-1.2,0-1.9,0.6-1.9,1.9v44.9c0,1.2,0.6,1.8,1.9,1.8h3.7
				c1.2,0,1.9-0.6,1.9-1.9V348c0-1.2,0.3-1.9,0.7-1.9s0.9,0.6,1.1,1.9l2.2,11.2c0.2,1.2,1,1.9,2.2,1.9h3.7c1.2,0,1.7-0.7,1.5-2
				L257.1,347.1z M251.9,336.8c0,1.2-0.6,1.9-1.9,1.9s-1.9-0.6-1.9-1.9v-14.9c0-1.3,0.6-1.9,1.9-1.9s1.9,0.6,1.9,1.9V336.8z
				 M319.1,312.6h-9.4c-1.2,0-1.9,0.6-1.9,1.9v44.8c0,1.2,0.6,1.9,1.9,1.9h9.4c1.2,0,1.8-0.6,1.8-1.9v-3.7c0-1.2-0.6-1.9-1.8-1.9
				h-1.9c-1.3,0-1.9-0.6-1.9-1.9v-8.4c0-1.2,0.6-1.9,1.9-1.9s1.9-0.6,1.9-1.9v-3.7c0-1.2-0.6-1.9-1.9-1.9s-1.9-0.6-1.9-1.9v-10.2
				c0-1.3,0.6-1.9,1.9-1.9h1.8c1.2,0,1.9-0.6,1.9-1.9v-3.7C321,313.2,320.4,312.6,319.1,312.6z"/>
		</g>
	</g>
</g>
<g id="loggerhead_2_">
	<g id="outline">
		<g>
			<path class="st2" d="M308.3,166.1c-3-1.1-6-2.1-9.1-3c-13-23.9-48.4-31.1-73-25c-19.3,4.8-32.9,17.7-45.6,32.1
				c-4.4,5-8.9,10.5-13.8,15.1c-7.7,7.3-12.6,7.5-18.3,5.4c0.7,3.7,3,9.4,8.2,13c2.4,1.7,5.3,2.9,8.4,3.8c-2.8,1.5-5.6,3.1-8.4,4.7
				c-1.8,1-3.6,2.5-5.1,3.9c-2.6,2.5-5.2,5.9-4.2,9.7c0.3,1.2,1,2.3,1.9,3.1c2.2,2,7.3,1.8,10.2,1.8c4.7,0,9.5-0.3,14.3-0.8
				c5.4-0.5,18.1-1.7,22.3-5.1c2.1-1.7,4.3-4,6.4-6.4c1.4,1.5,2.8,2.9,4.2,4c1.5,1.2,5.6,2.2,10.6,3c-2.2,2.7-4,5.6-5.3,8.8
				c-1.6,4-2.4,9.2-2.9,13.5c-0.7,5.9-1,12-1.1,18c0,7.4,0.3,15.4,1.8,22.6c1,5.1,3.2,12.8,9,14.2c1.3,0.3,2.7,0.2,4-0.1
				c5.7-1.7,11-11.2,13.7-16.1c0.6-1.1,1.1-2.1,1.7-3.2c0.4,2,1.3,5.4,3.1,4.6c1-0.5,3.6-7.6,6.2-15.8c0.7,1.1,1.8,2,3,1.1
				c2-1.5,6.8-26.9,8.1-36.5c0.6-2.5,1.3-5,1.9-6.8l0,0l0-0.1l0.2-0.6l0.1-0.2l0.1-0.2l0-0.1c3.6-10.1,6.1-11.7,5.8-21.5
				c0-0.6,0-1.2,0-1.9c0.6,0,1.3,0.1,2,0.3c14,3.6,14.4,76.8,22.2,75.2c2.3-0.5,4.6-4.8,6.5-11.1c0.4,0.8,1.6,2.6,2.7,1.6
				c0.8-0.8,1.4-10,1.7-17c0.7,0.3,1.4,0.4,2-0.4c1.3-1.5,1-20-0.2-33.1c-0.5-5.5-1.7-10.8-3.8-15.3c8.3,2.1,9.2,6.4,7.8,12.8l6-2.8
				c8-3.7,14.4-11.1,16.2-19.8c2.1-2.2,3.6-4.9,3.8-8.1C333.9,176,317.3,169.4,308.3,166.1z"/>
		</g>
	</g>
	<g id="loggerhead">
		<g>
			<path class="st3" d="M230.8,162c4.3-0.5,9.2-0.4,14.6,0.3l0.9,0.1c-0.1-4.5-0.1-10.5-0.1-12.5c-3.2-1.3-7.7-2.8-11.1-0.9
				C231.2,151.2,230.8,157.1,230.8,162z M248.9,145.1c1.8-1.8,3.1-2.9,4.2-3.4c-4.9-0.6-9.9-0.7-14.6-0.3c-0.5,1.1-1.1,2.2-1.8,3.1
				c3.3,0.5,7.6,2.1,10,3.1C247.3,146.7,248,145.9,248.9,145.1z M249.6,149.3c0,1,0.8,8.1,1.4,13.4c5.9,0.1,9.9-1.1,13.8-3.2
				c-2.8-5.1-4.7-10.1-2.9-13.5c-2-1-4.4-1.9-6.9-1.6C252.4,144.8,249.6,146.6,249.6,149.3z M275.9,152.6c1.3-0.8,2.7-1.6,4.2-2.3
				c-4.1-2.4-8.6-4.4-13.3-5.8c-3.9,2.2-1.6,7.5,1.6,12.9C270.7,155.9,273,154.3,275.9,152.6z M264.1,143.7
				c-1.5-0.4-3.1-0.8-4.6-1.1c1.1,0.5,2.3,1,3.8,1.7C263.6,144.1,263.8,143.9,264.1,143.7z M205.5,172.4l1.2-8.5
				c-7.9-1.5-16.7,3.2-26.6,14.6l-0.1,0.1l-0.4,0.5l0,0c-3.4,3.9-6.6,7.5-9.7,10.4l0.1-0.1C185.3,190.9,193.9,180.8,205.5,172.4z
				 M296.4,167.4c-4.7-4.2-10.1-1.1-17,2.9c-2.8,1.6-5.5,3.1-8.3,4.4c0.1,3.5,1.3,17.1,11.6,22.9c2.1,1.2,4.2,1.9,6.3,2.4
				c0.7,0.2,1.4,0.3,2.1,0.4c9.5,1,20.4,1.1,20.9,11.8c5.8-2.7,10-7.3,12.2-12.3l0,0c0.6-1.3,1-2.6,1.3-3.8c0.8-4.3-0.6-7.7-0.6-7.7
				c1.3,0.8,2.1,2.4,2.6,4.3c1-1.2,1.8-2.7,1.8-4.4C329.6,178.3,310.6,171.7,296.4,167.4z M270.8,174.9c-8.1,3.7-16.1,5-25.3-1.1
				c13.4,3.1,23.4-2.6,31.6-7.3c5.6-3.2,10.5-6,15.2-5.7c-1.1-1.4-2.3-2.8-3.7-4.1c-4.4,0.1-8.5,1.9-12,4
				c-11.1,6.5-15.2,11.3-30.5,8.9c-34.9-5.6-36.5,10.1-60.7,21.4c-5.6,2.6-12.4,4.1-20.2,2.3l0.1,0c-2.3,1.6-4.6,2.7-7,3
				c3.5,4.8,8.3,7.6,13.4,8.4c3.7,0.2,11.2-0.3,19.4-7.1c1.5-1.2,2.6-2.1,3.7-3c6.9-5.7,30.3-25.3,45.2-15
				c-14.5-2.2-30.8,8.9-42.3,18.4c-1.4,1.1-2.7,2.2-3.7,3.1c-8.9,7.2-16.7,8.4-21.3,8.2c-5.2,2.8-10.3,5.5-13.4,7.4
				c-2.3,1.4-9.5,7-6.7,9.6c1.8,1.6,35.8-0.2,41-4.3c3.5-2.7,7.4-7.6,9.6-10.5l6.9-10l-2.6,9l2.6-5l-0.8,6.4
				c6.6,1.2,13.8,1.8,21.6,1c11-9.5,3.4-17.1,3.4-17.1c8,3,7.6,10.4,3.2,16.2l0.1,0c-0.4,0.4-0.7,0.9-1.2,1.3
				c-0.4,0.5-0.8,0.9-1.3,1.4c-5.8,5.8-15.2,12.6-19,21.9c-5.4,13.1-6.1,66.1,5.8,62.6c11.9-3.5,38.5-77.5,40.5-87.7
				c0.5-2.7,0.5-5.2,0.2-7.5c-0.7-3.6-2.4-5.6-2.4-5.6c2.4,0.2,4.2,1.4,5.3,3.3c1.4-0.8,2.8-1.6,4.2-2.5c-3.6-2.5-5.3-6.8-3.6-11.4
				c0,0,0.9,8,7.3,9.8c0.9,0,1.8-0.1,2.7-0.3C270.8,191.5,268.4,183.2,270.8,174.9z M207.2,160.7c0.3-2.3,0.6-4.1,0.7-4.6
				c0.2-1.2,1.6-2.8,3.4-4.3c1.9-1.6,3.3-2.6,4.7-3.1c-0.4-0.3-0.8-0.6-1.2-0.8c-6.6,3.4-12.4,7.8-17.7,12.5
				c1.2-0.4,2.3-0.7,3.3-0.7C203.6,159.5,205.8,160,207.2,160.7z M233.9,141.8c-2.2,0.3-4.2,0.7-6.2,1.2c-3.5,0.9-6.8,2-10,3.4
				c2.4,1,5.6,2.1,9.2,2.7C229.2,147.4,231.8,145,233.9,141.8z M221.4,151.6c-1-0.3-2.1-0.6-3-0.5c-1.9,0.1-6.2,2.7-6.6,5.4
				c-0.2,1-0.6,7.9-0.9,12.3c4.5-2.7,9.5-4.9,15.5-6.2c0.1-2.5,0.3-5.4,0.9-8.2c-1.1-0.7-2.7-1.6-4.4-2.3
				C222.3,152,221.9,151.8,221.4,151.6z"/>
		</g>
	</g>
	<g id="eye_outline">
		<g>
			<path class="st2" d="M292,184.3c0,0,2.3,4.2,6,6.5c0.3,0.2,0.6,0.4,0.9,0.5c-4.4,0.6-6.6-3.7-6.6-3.7c0.8,7.2,10.6,8,15.9,3.3
				c0.5-0.3,1-0.6,1.6-1C302.1,192.3,305.1,178.8,292,184.3z"/>
		</g>
	</g>
	<g id="eye">
		<g>
			<path class="st4" d="M300.1,186.4c-1.1-0.7-3.5-0.6-3.5-0.6c1.6,3.8,6.7,4.1,6.7,4.1S301.2,187.1,300.1,186.4z"/>
		</g>
	</g>
</g>
<g id="shadow_1_1_">
	<g id="_x31_">
		<g>
			<path class="st5" d="M260.3,198.1c4.6,6.3-21.3,81-43.1,98.7c1.3,1.9,2.8,2.7,4.7,2.2c11.9-3.5,38.5-77.5,40.5-87.7
				C264.4,201,260.3,198.1,260.3,198.1z M318.6,203.7c1.3-1.8,2.4-4.2,2.9-7.2c-3.1,5.5-7.9,8.5-9.5,9.3c-3.5-5.5-11.9-4.6-11.9-4.6
				c6.3,1.1,11.6,3.4,11.9,10.7c5.8-2.7,10-7.3,12.2-12.3c0.6-1.3,1-2.6,1.3-3.9c0.8-4.3-0.6-7.7-0.6-7.7
				C324.9,188,325.9,196.3,318.6,203.7z M312.9,173c0,0,16.1,7.5,13.7,17.1c0.4,0.7,0.6,1.4,0.8,2.3c1-1.2,1.8-2.7,1.8-4.4
				C329.5,181.8,322,176.8,312.9,173z"/>
		</g>
	</g>
	<g id="_x32_">
		<g>
			<path class="st5" d="M217.5,146.4c0.6,0.2,1.2,0.5,1.8,0.7c2-0.7,4-1.3,6.1-1.9c2.2-0.5,4.4-1,6.7-1.3c0.6-0.7,1.1-1.4,1.6-2.2
				c-2.2,0.3-4.2,0.7-6.2,1.2C223.9,143.8,220.6,145,217.5,146.4z M215.7,148.5c-0.4-0.3-0.7-0.5-1.1-0.8
				c-6.6,3.4-12.4,7.8-17.7,12.5c0.3-0.1,0.5-0.2,0.7-0.2C203.1,155.6,209,151.5,215.7,148.5z M242.9,146.1c1.4,0,2.9,0,4.6,0.1
				c0.3-0.4,0.7-0.8,1.1-1.2c0.4-0.4,0.7-0.7,1.1-1c-3.9,0.2-7,0.8-9.3,1.3C241.3,145.5,242.1,145.8,242.9,146.1z M165.1,193.2
				c-2.3,1.6-4.6,2.6-6.9,3c0,0,14.8,4.4,27.6-1.2c11.8-5.2,26.6-22.3,36.4-25.4c-14.1,3.4-20,13.5-36.9,21.4
				C179.6,193.5,172.8,195,165.1,193.2z M254.9,144.4c-1.5,0.2-3.2,0.9-4.2,2c3.1,0.3,6.7,0.8,10.4,1.8c0.1-0.8,0.3-1.6,0.7-2.2
				C259.7,144.9,257.3,144.1,254.9,144.4z M238.3,141.3c-0.4,0.8-0.8,1.5-1.2,2.2c4.2-0.3,8.5-0.2,12.8,0.3c1.2-1.1,2.1-1.8,2.9-2.2
				C248,141,243,140.9,238.3,141.3z M288.4,156.7c-1.8,0-3.6,0.4-5.3,0.9c1.7,1.1,3.4,2.2,5.1,3.5c0.1,0,0.4-0.1,0.4-0.1
				c1.2-0.3,2.4-0.4,3.5-0.3C290.9,159.3,289.7,157.9,288.4,156.7z M264.7,149.2c3.3,1,6.7,2.2,10.2,3.9l0.9-0.5
				c1.3-0.8,2.8-1.6,4.2-2.3l0,0c-4.1-2.4-8.6-4.4-13.3-5.8C264.8,145.4,264.4,147.1,264.7,149.2z M263.1,144.3
				c0.3-0.2,0.5-0.4,0.9-0.6c-1.5-0.4-3.1-0.8-4.7-1.1C260.4,143,261.6,143.6,263.1,144.3z"/>
		</g>
	</g>
</g>
<g id="shadow_2_1_">
	<g id="_x31__1_">
		<g>
			<path class="st6" d="M235.5,154.9c-0.2,0.4,0.2,0.9,0.7,1.1c0.6,0.1,1.2-0.1,1.3-0.5c0.2-0.4-0.2-0.9-0.7-1.1
				C236.3,154.2,235.7,154.5,235.5,154.9z M242.1,156.4c0.3,0.1,0.6-0.1,0.7-0.3c0.1-0.2-0.1-0.5-0.4-0.5c-0.3-0.1-0.6,0.1-0.7,0.3
				C241.7,156.1,241.8,156.3,242.1,156.4z M219,160.3c0.6,0.1,1.3-0.3,1.5-0.8c0.2-0.5-0.2-1-0.8-1.1c-0.6-0.1-1.3,0.3-1.5,0.8
				C217.9,159.8,218.3,160.3,219,160.3z M215.8,157.2c0.6,0.1,1.3-0.3,1.5-0.8c0.2-0.5-0.2-1-0.8-1.1c-0.6-0.1-1.3,0.3-1.5,0.8
				C214.8,156.6,215.1,157.1,215.8,157.2z M197.1,160.3l-0.2,0.1l0,0L197.1,160.3z M253.1,154.7c-0.1,0.7,0.6,1.4,1.5,1.5
				c0.9,0.1,1.7-0.4,1.8-1.1c0.1-0.7-0.6-1.4-1.5-1.5C254,153.5,253.2,154,253.1,154.7z M257.4,155.2c-0.1,0.5,0.4,1,1.1,1.1
				c0.7,0.1,1.2-0.3,1.3-0.8c0.1-0.5-0.4-1-1.1-1.1C258.1,154.3,257.5,154.6,257.4,155.2z M268,148.3c0.4,0,0.7-0.2,0.7-0.4
				c0-0.3-0.2-0.5-0.6-0.6c-0.4,0-0.7,0.2-0.7,0.4C267.4,148,267.7,148.3,268,148.3z M270.7,152c0.9,0.1,1.8-0.4,1.8-1.1
				c0.1-0.7-0.6-1.4-1.5-1.5c-0.9-0.1-1.7,0.4-1.8,1.1C269.1,151.3,269.8,151.9,270.7,152z M256.9,152.5c0.5,0.1,1-0.2,1-0.6
				c0-0.4-0.3-0.8-0.9-0.8c-0.5-0.1-1,0.2-1,0.6C256,152.1,256.4,152.5,256.9,152.5z M226.1,148l-6.2-0.6c2,0.7,4.3,1.4,6.8,1.8
				c1.6-1.2,3.3-2.7,4.9-4.6L226.1,148z M245,160.2c0.2-0.2,0.3-0.4,0.4-0.6c0.3-0.9-0.3-1.8-1.5-2.1c-1.1-0.3-2.3,0.2-2.7,1.1
				c-0.1,0.1-0.1,0.3-0.1,0.4c-0.1,0-0.1,0-0.2-0.1c-0.6-0.1-1.2,0.1-1.3,0.5c0,0,0,0.1,0,0.1l-0.7,0c0.1-0.4-0.2-0.7-0.6-0.8
				c-0.5-0.1-1,0.1-1.1,0.4c0,0.1,0,0.2,0,0.3c-1.3,0-2.6,0-3.9,0.1c0.2-3.9,0.7-8.5,3-11.2c-0.5,0.1-1,0.3-1.4,0.6
				c-3.9,2.3-4.3,8.1-4.3,13c4.3-0.5,9.2-0.4,14.6,0.3c0.3,0,0.6,0.1,0.9,0.1l0-2.1L245,160.2z M223.3,158.9
				c-1.3-0.1-2.4,0.5-2.5,1.6c0,0.4,0.1,0.8,0.4,1.2c-1.5,0.5-3,1.2-4.4,1.8c-0.2-0.9-1.2-1.7-2.4-1.8c-0.4-0.1-0.9,0-1.3,0.1
				c0.2-3.2,0.5-6.5,0.6-7.1c0.1-0.7,0.5-1.3,1-2c-1.5,1-2.9,2.5-3.1,4c-0.2,1-0.6,7.8-0.9,12.3c4.5-2.7,9.5-4.9,15.5-6.2
				c0-0.8,0.1-1.7,0.1-2.6l-0.8,0.2C225.1,159.7,224.3,159,223.3,158.9z M212.8,165.6L212.8,165.6L212.8,165.6L212.8,165.6z
				 M256.2,160.5c0.1-0.2,0.2-0.4,0.2-0.6c0.1-1.2-0.9-2.2-2.4-2.4c-0.5-0.1-1.1,0-1.5,0.2c-0.5-4.1-1-8.4-1-9.1
				c0-2,1.9-3.6,3.9-4.2c-0.1,0-0.3,0-0.4,0c-2.6,0.3-5.5,2.2-5.5,4.9c0,1,0.8,8.1,1.4,13.4c5.9,0.1,9.9-1.1,13.8-3.2
				c-0.2-0.4-0.5-0.8-0.7-1.3C261.6,159.5,259.2,160.2,256.2,160.5z M278,149.3c-0.3,0.2-0.7,0.4-1,0.6c-1.2,0.8-2.4,1.5-3.4,2.2
				c-0.1,0-0.1,0-0.2-0.1c-0.4,0-0.8,0.2-0.8,0.5c0,0.1,0,0.2,0,0.2l-1.3,0.9c0-0.6-0.5-1-1.2-1.1c-0.6-0.1-1.1,0.2-1.3,0.5
				c-1.6-2.9-2.8-5.8-2.7-8c-2.8,2.5-0.6,7.4,2.3,12.4c2.2-1.4,4.6-3.1,7.5-4.8c1.3-0.8,2.8-1.6,4.2-2.3
				C279.3,150,278.6,149.6,278,149.3z M269.5,154.7l-0.1-0.1l0.2,0L269.5,154.7z M212.1,151.1c-1.2,0.6-4.6,2.8-4.8,4l-1.5,3.7
				c-4.3-1.7-8.2,1.1-8.5,1.6c1.1-0.3,2.1-0.6,3-0.6c3.1-0.2,5.3,0.4,6.7,1l0.7-4.6c0.2-1.2,1.6-2.8,3.4-4.3
				C211.4,151.6,211.7,151.3,212.1,151.1z M180.4,181c0.6,0,1.1-0.4,1.1-0.8c0.1-0.5-0.4-0.8-1-0.8c-0.6,0-1.1,0.4-1.1,0.8
				C179.4,180.6,179.8,181,180.4,181z M196.1,174.4c1.4,0,2.6-0.9,2.7-2c0.1-1.1-0.9-2-2.2-2c-1.4,0-2.6,0.9-2.7,2
				C193.7,173.5,194.7,174.4,196.1,174.4z M188.5,179.2c0.9,0,1.7-0.6,1.8-1.3c0.1-0.7-0.6-1.3-1.5-1.3c-0.9,0-1.7,0.6-1.8,1.3
				C186.9,178.6,187.6,179.2,188.5,179.2z M204.7,164.8c-0.2-0.1-0.4-0.1-0.6-0.1c-0.9,0-1.7,0.6-1.8,1.3c-0.1,0.7,0.6,1.3,1.5,1.3
				c0.2,0,0.4,0,0.5-0.1l-0.4,3c-0.6,0.5-1.3,0.9-1.9,1.4c-0.2-0.2-0.6-0.3-1-0.3c-0.8,0-1.6,0.5-1.7,1.2c0,0.3,0.1,0.7,0.4,0.9
				c-1.2,1-2.4,1.9-3.6,2.8c-0.4-0.5-1.1-0.8-2-0.8c-1.5,0-2.8,0.9-2.9,2.1c-0.1,0.7,0.3,1.3,0.9,1.7c-6,4.5-12.2,8-20.2,8.1
				c-0.7,0.7-1.4,1.4-2.1,2.1c15.3,1.6,23.8-8.5,35.5-17l1.3-8.5c-0.6-0.1-1.2-0.2-1.7-0.2L204.7,164.8z"/>
		</g>
	</g>
	<g id="_x32__1_">
		<g>
			<path class="st6" d="M194.1,214.2c-0.8,0-1.4,0.5-1.4,1.1c0,0.6,0.6,1.1,1.4,1.1c0.8,0,1.4-0.5,1.4-1.1
				C195.5,214.7,194.8,214.2,194.1,214.2z M186.8,213.1c-0.6,0-1.1,0.4-1.1,0.9c0,0.5,0.5,0.9,1.1,0.9c0.6,0,1.1-0.4,1.1-0.9
				C187.9,213.5,187.4,213.1,186.8,213.1z M181.9,214.7c-0.8,0-1.4,0.5-1.4,1.1c0,0.6,0.6,1.1,1.4,1.1c0.8,0,1.4-0.5,1.4-1.1
				C183.3,215.2,182.6,214.7,181.9,214.7z M205.9,197.2c-0.6,0-1.1,0.4-1.1,0.9c0,0.5,0.5,0.9,1.1,0.9c0.6,0,1.1-0.4,1.1-0.9
				C207,197.6,206.5,197.2,205.9,197.2z M197.6,197.7c0,0-0.1,0.1-0.1,0.1l-3.4,2.8l-0.3,0.2c-2,1.6-3.9,2.9-5.7,3.9
				c-6.5,3.7-12,4.4-15.7,4.3c0,0,0,0-0.1,0c-1.9,1-3.8,2.1-5.6,3l0,0c5.1,1.5,9.9,1.2,14.5-0.3c0.2,0.9,1.2,1.6,2.5,1.6
				c1.4,0,2.5-0.9,2.5-2l0-0.1c0.6,0.5,1.5,0.9,2.5,0.9c1.9,0,3.4-1.2,3.4-2.7c0-1-0.6-1.8-1.6-2.3c0.5-0.3,0.9-0.6,1.4-0.9
				c1.7-1.1,3.3-2.3,5-3.6c1.2-0.9,2.4-1.9,3.6-2.9c2.6-2.2,5.2-4.4,7.9-6.6c0.4,0.6,1.2,1,2.2,1c1.4,0,2.5-0.9,2.5-2
				c0-0.8-0.6-1.4-1.4-1.8c8.3-6.7,16.8-12.1,26.2-11.5C223.9,178.2,208.6,188.7,197.6,197.7z M216.5,188.1c-0.9,0-1.7,0.6-1.7,1.3
				c0,0.7,0.8,1.3,1.7,1.3c0.9,0,1.7-0.6,1.7-1.3C218.2,188.7,217.4,188.1,216.5,188.1z M217,192c-0.6,0-1.1,0.4-1.1,0.9
				c0,0.5,0.5,0.9,1.1,0.9c0.6,0,1.1-0.4,1.1-0.9C218.1,192.4,217.6,192,217,192z"/>
		</g>
	</g>
	<g id="_x33_">
		<g>
			<path class="st6" d="M236.7,224.9c-0.6,0-1,0.4-1,0.8c0,0.4,0.5,0.8,1,0.8c0.6,0,1-0.4,1-0.8
				C237.7,225.3,237.3,224.9,236.7,224.9z M236.2,223.6c0.4,0,0.7-0.3,0.7-0.6c0-0.3-0.3-0.6-0.7-0.6c-0.4,0-0.7,0.3-0.7,0.6
				C235.5,223.4,235.8,223.6,236.2,223.6z M239.6,207.7c-1.2,3-3.5,5.9-6.4,8.1c-5.8,5.4-13.8,11.8-17.3,20.2c-2.5,6-4,20.5-3.7,34
				c0.2-11.4,1.6-22.5,3.7-27.5c2.4-5.9,7.2-10.9,11.8-15.1c0.1,0.1,0.3,0.1,0.5,0.1c0.6,0,1-0.4,1-0.8c0-0.2-0.1-0.3-0.2-0.5
				l1.6-1.4c0.2,0,0.4,0.1,0.6,0.1c1.3,0,2.3-0.8,2.3-1.8c0-0.3-0.1-0.5-0.2-0.7l1-0.9c0.3,0.4,0.8,0.7,1.4,0.7
				c0.8,0,1.5-0.5,1.6-1.1c0.2,0.1,0.4,0.2,0.7,0.2c0.6,0,1-0.4,1-0.8c0-0.4-0.5-0.8-1-0.8c-0.4,0-0.8,0.2-1,0.5
				c-0.2-0.2-0.5-0.4-0.9-0.5c1.9-2,3.2-3.8,3.6-5.7C240.1,211.6,240,209.5,239.6,207.7z"/>
		</g>
	</g>
	<g id="_x34_">
		<g>
			<path class="st6" d="M269.9,179.7c0.1-1.7,0.4-3.4,0.9-5.1c-8.2,3.7-16.2,5.1-25.4-1.1c0,0,8,9.6,20.3,7.4l-0.1,0
				c0.5,3.4,1.9,8.9,5.4,12.7c1.4,1.4,3.1,2.6,5.2,3.3c-1.3-1.3-2.4-2.8-3.4-4.4C270.7,188.7,269.6,184.3,269.9,179.7z M267.5,196.9
				c-1.7-2.1-2.5-4.9-1.9-7.9c0,0-2.5,5.6,0.3,10.1c0.3,0.5,0.6,1,1.1,1.4c0.9-0.5,1.8-1.1,2.7-1.6
				C268.9,198.3,268.1,197.6,267.5,196.9z M282.7,175.1c-1.2,0-2.1,0.8-2.1,1.7c0,0.9,1,1.7,2.1,1.7c1.2,0,2.1-0.8,2.1-1.7
				C284.9,175.8,283.9,175.1,282.7,175.1z M303.2,169.6c-0.8,0-1.5,0.5-1.5,1.2c0,0.6,0.7,1.2,1.5,1.2c0.8,0,1.5-0.5,1.5-1.2
				C304.7,170.2,304,169.6,303.2,169.6z M287.3,173.8c-0.7,0-1.2,0.4-1.2,1c0,0.5,0.6,1,1.2,1c0.7,0,1.2-0.4,1.2-1
				C288.5,174.2,288,173.8,287.3,173.8z M295.1,174.9c-0.8,0-1.5,0.5-1.5,1.2c0,0.6,0.7,1.2,1.5,1.2c0.8,0,1.5-0.5,1.5-1.2
				C296.6,175.4,295.9,174.9,295.1,174.9z M291.7,167.8c2-0.8,3.7-1.1,4.7-0.5c-4.7-4.2-10.1-1.1-17,2.9c-2.8,1.6-5.5,3.1-8.3,4.4
				c0,0.9,0.1,2.4,0.4,4.3c0.5-0.2,1.1-0.4,1.6-0.7c0.2,0.3,0.6,0.5,1.1,0.5c0.7,0,1.2-0.4,1.2-1c0-0.2-0.1-0.5-0.3-0.6
				c2-1.1,4.2-2.5,6.5-3.8c0.5,0.6,1.3,1,2.2,1c1.5,0,2.7-0.9,2.7-2.1l0-0.1c0.7,0.6,1.6,0.9,2.7,0.9c2,0,3.7-1.3,3.7-2.9
				C293,169.1,292.5,168.3,291.7,167.8z"/>
		</g>
	</g>
</g>
<g id="object_1_">
	<g id="face">
		<g>
			<path class="st2" d="M289.4,185.9c-0.3-0.5-2.3-1.8-2.6-1.8c-0.3,0-1.2,1.4-1.4,2c-0.1,0.4,0,1.4,0,2.2
				C285.7,190.9,290.4,187.7,289.4,185.9z M288.8,189.1c-0.2,0.2-1.1,3-1.7,4.9c-0.8,2.8,2.7,3.3,5.7,4.6c0-1.9-0.1-4.8-0.8-5.7
				C291.1,191.7,289.2,188.8,288.8,189.1z M284.7,185.7c0.2-0.5-1.9-2.8-2.8-3.4c-0.6-0.4-2.4-0.7-3.8-1c-4.8-0.8-1.5,8.9,2.2,8
				C281.3,189.1,284.4,186.2,284.7,185.7z M282.9,190.5c0,0-0.6,0.1-0.8,0.6c-0.1,0.5,2.3,2.7,2.8,2.1c0.5-0.6,0.9-2.8,0.6-3.1
				C285.2,189.8,282.9,190.5,282.9,190.5z M311,170.7c-0.2-0.5-2-1.6-2.3-1.6c-0.3,0-1.1,1.3-1.3,1.8c-0.1,0.3,0,1.2,0,1.9
				C307.7,175.2,311.9,172.4,311,170.7z M321.9,181.2c-0.2-0.7-1.7-2.9-2.4-3c-2.7-0.5-2.5,0.7-2.9,3c-0.3,2,0.8,2.5,3.2,3.9
				c0.6,0.3,1.4,0.3,1.5,0.1C321.3,185.1,322.1,181.9,321.9,181.2z M307.3,175.3c0,0-0.5,0.1-0.6,0.5c-0.1,0.4,1.9,2.2,2.3,1.7
				c0.4-0.5,0.7-2.3,0.5-2.5C309.2,174.7,307.3,175.3,307.3,175.3z M316.9,175.8c-0.1-1.1-0.2-2.6-0.4-3c-0.4-0.8-2-2.6-2.4-2.5
				c-0.4,0.1-2.9,2.3-3.2,3.1C309.9,176.2,317.2,179.6,316.9,175.8z"/>
		</g>
	</g>
	<g id="hand">
		<g>
			<path class="st2" d="M223.2,266c0.4-0.3,1.2-1.5,1.7-2.4c1.9-3.1-5.9-3.5-6.3-0.6c-0.1,0.8,1.1,3.8,1.4,4.1
				C220.3,267.4,222.5,266.5,223.2,266z M225,239.6c0.4-0.2,2.7-2.4,3-3.2c0.8-2.7-6.4-5.6-6-2c0.1,1.1,0.3,2.5,0.6,2.9
				C222.9,238.1,224.6,239.8,225,239.6z M219.3,259.7c1.1-2,3.7-6.2,3.1-6.5c-0.6-0.3-9.8,1-9.8,1s0,0,0,0.1
				c-0.2,3.2-0.3,6.5-0.3,9.8C214.7,262.9,218.6,261,219.3,259.7z M238.2,255.9c1.3,0.2,3.7-3.5,4.4-4.4c0.6-0.9,2.6-4,1.9-5.4
				c-0.7-1.4-4.2-4.4-5.6-4.2c-1.4,0.2-4.1,2.7-4.1,2.7S236.9,255.7,238.2,255.9z M227.7,264.2c-0.3,1.1,5.8,10.1,7.2,9.5
				c1.4-0.6,3.9-7.6,3.9-9.2c0-1.6-6.5-14.6-6.5-14.6c-2.1,0.3-1.8,7.4-1.5,8.8C231.3,260.2,228,263.1,227.7,264.2z M214.1,272.7
				c-0.3-0.3-1.3-0.2-2.2,0c0.1,4.2,0.4,8.2,0.9,11.9c0.3,0.4,0.6,0.8,0.9,0.9c0,0,2.7-5,2.6-6C216.3,278.5,214.6,273,214.1,272.7z
				 M223.6,282.1c0.9,0.6,2.5,0.6,2.8,0.3c0.2-0.3,2.6-6.4,2.5-7.7c-0.1-1.4-2.4-5.4-3.7-5.6c-1.3-0.3-3.7-0.4-3.7-0.4l-3.5,8.6
				C218,277.2,222.7,281.5,223.6,282.1z M255.4,217.6c-1.3-0.2-2.2,3.4-0.5,3c0.5-0.1,1.1-0.3,1.3-0.5
				C257.8,218.9,256.7,217.7,255.4,217.6z M242.7,256.1l-1.7,9c0,0,0.5,2.1,1,3.2c1.8-1.2,3.5-2.5,5.3-3.8c0.3-0.3,0.5-0.5,0.6-0.6
				c0.7-0.8,0.5-8.2-0.4-9C246.5,254.1,242.7,256.1,242.7,256.1z M258.6,221.3c-2.7-0.4-4.4,6.8-1,5.9c1-0.3,2.3-0.7,2.7-1
				C263.4,223.9,261.2,221.7,258.6,221.3z M235.3,277c-0.2,0.3,0.5,1.4,1.3,2.6c1.2-2.5,2.5-5.2,3.8-7.9c-0.2-0.2-0.5-0.4-0.7-0.4
				C238.7,270.8,235.8,276.2,235.3,277z M231.3,278.1c-1.5,0-3.9,6-4.2,7.2c-0.2,0.9,1.4,4.8,2.4,7c1.9-2.9,3.9-6.5,5.9-10.4
				C234.5,280.6,232.5,278.1,231.3,278.1z M219.1,282.4c-1.9,1.3-3.2,8.2-3.7,13.5c1.5,3.7,3.5,5.6,6.2,4.8c1.8-0.5,3.8-2.6,6.1-5.7
				c-0.7-2.4-2.6-8.3-3.3-8.9C223.5,285.3,219.1,282.4,219.1,282.4z"/>
		</g>
	</g>
	<g id="leg">
		<g>
			<path class="st2" d="M171.7,217.2c-1.2,0.2-3.2,10.5-3.2,10.5s2.5,2.3,3.8,2.5c1.3,0.2,4.6-2.6,5.2-3.9c0.6-1.3-1.2-4.2-1.8-5
				C175.2,220.4,172.9,217,171.7,217.2z M166,218.5c0.1-0.2,1.7-4.1,1.6-5c-0.1-0.9-1.5-3.4-2.4-3.6c-0.9-0.2-2.4-0.3-2.4-0.3
				l-2.3,5.5c0,0,3,2.8,3.7,3.2C164.9,218.7,165.9,218.6,166,218.5z M175.1,214.7c0.6,1,1.3,2.3,1.8,2.7c0.7,0.6,3,1.6,3.4,1.3
				c0.4-0.3,1.7-3.5,1.7-4.4C181.6,211.2,173.2,211.2,175.1,214.7z M160.1,222.1c-0.7,0.2-3.7,5.8-3.7,5.8s9.8,0.5,10.6,0.1
				c0.8-0.4,0.6-4.7,0.5-5C167.4,222.8,160.8,221.9,160.1,222.1z M198.7,194.8c-0.8,0.4-1.9,0.9-2.2,1.2c-2.4,2.5-0.2,4.2,2.2,4.2
				C201.1,200.2,201.5,193.5,198.7,194.8z M188.5,218c0,0-0.7,0.1-0.9,0.7c-0.1,0.5,2.6,3.1,3.3,2.4c0.6-0.7,1-3.2,0.7-3.5
				C191.1,217.2,188.5,218,188.5,218z M192.7,203.3c-1,2.8,6.3,6.1,6,2.4c-0.1-1.1-0.2-2.6-0.4-3
				C196.5,198.9,193.6,200.6,192.7,203.3z"/>
		</g>
	</g>
</g>
</svg>
